<svg id="visual" viewBox="0 0 900 600" width="900" height="600"
    xmlns="http://www.w3.org/2000/svg" version="1.1">
    <path d="M0 481L21.5 487.8C43 494.7 86 508.3 128.8 500.2C171.7 492 214.3 462 257.2 437.3C300 412.7 343 393.3 385.8 391.8C428.7 390.3 471.3 406.7 514.2 429C557 451.3 600 479.7 642.8 494.3C685.7 509 728.3 510 771.2 493.3C814 476.7 857 442.3 878.5 425.2L900 408L900 601L878.5 601C857 601 814 601 771.2 601C728.3 601 685.7 601 642.8 601C600 601 557 601 514.2 601C471.3 601 428.7 601 385.8 601C343 601 300 601 257.2 601C214.3 601 171.7 601 128.8 601C86 601 43 601 21.5 601L0 601Z" fill="#09090b" stroke-linecap="round" stroke-linejoin="miter"></path>
</svg>